<?xml version="1.0" encoding="UTF-8"?>
<svg width="24px" height="18px" viewBox="0 0 24 18" version="1.1" xmlns="http://www.w3.org/2000/svg" xmlns:xlink="http://www.w3.org/1999/xlink">
    <!-- Generator: Sketch 62 (91390) - https://sketch.com -->
    <title>youtube</title>
    <desc>Created with Sketch.</desc>
    <g id="Symbols" stroke="none" stroke-width="1" fill="none" fill-rule="evenodd" stroke-linecap="round" stroke-linejoin="round">
        <g id="Resource-/-New-Card-1-line" transform="translate(-143.000000, -121.000000)" stroke="#2A71C4" stroke-width="2">
            <g id="Group-10">
                <g id="Group" transform="translate(40.000000, 32.000000)">
                    <g id="Group-9" transform="translate(0.000000, 59.000000)">
                        <g id="Group-6" transform="translate(103.000000, 28.000000)">
                            <g id="youtube" transform="translate(0.000000, 3.000000)">
                                <path d="M22.54,2.42 C22.2982108,1.45399138 21.5581982,0.691091858 20.6,0.42 C18.88,0 12,0 12,0 C12,0 5.12,0 3.4,0.46 C2.44180175,0.731091858 1.70178922,1.49399138 1.46,2.46 C1.14521456,4.20555551 0.991235927,5.97630975 1,7.75 C0.988779294,9.53704498 1.14276769,11.3213018 1.46,13.08 C1.7263503,14.0152563 2.46203386,14.7433555 3.4,15 C5.12,15.46 12,15.46 12,15.46 C12,15.46 18.88,15.46 20.6,15 C21.5581982,14.7289081 22.2982108,13.9660086 22.54,13 C22.8523572,11.2675885 23.0063261,9.51033425 23,7.75 C23.0112207,5.96295502 22.8572323,4.1786982 22.54,2.42 Z" id="Path"></path>
                                <polygon id="Path" points="9.75 11.02 15.5 7.75 9.75 4.48"></polygon>
                            </g>
                        </g>
                    </g>
                </g>
            </g>
        </g>
    </g>
</svg>